<?xml version="1.0" encoding="utf-8"?>
<!-- Generator: Adobe Illustrator 25.2.1, SVG Export Plug-In . SVG Version: 6.00 Build 0)  -->
<svg version="1.1" xmlns="http://www.w3.org/2000/svg" xmlns:xlink="http://www.w3.org/1999/xlink" x="0px" y="0px"
	 viewBox="450 450 100 100" enable-background="new 450 450 100 100" xml:space="preserve">
<g id="Layer_2">
</g>
<g id="Layer_1">
	<path fill="#EFEEE4" d="M520.3,453.3h-5.2c0,1.6-1.3,2.9-2.9,2.9c-1.6,0-2.9-1.3-2.9-2.9H507c0,1.6-1.3,2.9-2.9,2.9
		c-1.6,0-2.9-1.3-2.9-2.9h-2.3c0,1.6-1.3,2.9-2.9,2.9c-1.6,0-2.9-1.3-2.9-2.9h-2.3c0,1.6-1.3,2.9-2.9,2.9c-1.6,0-2.9-1.3-2.9-2.9
		h-5.2c0,5.4-4.4,9.7-9.7,9.7v74c5.4,0,9.7,4.4,9.7,9.7h5.2c0-1.6,1.3-2.9,2.9-2.9c1.6,0,2.9,1.3,2.9,2.9h2.3c0-1.6,1.3-2.9,2.9-2.9
		c1.6,0,2.9,1.3,2.9,2.9h2.3c0-1.6,1.3-2.9,2.9-2.9c1.6,0,2.9,1.3,2.9,2.9h2.3c0-1.6,1.3-2.9,2.9-2.9c1.6,0,2.9,1.3,2.9,2.9h5.2
		c0-5.4,4.4-9.7,9.7-9.7v-74C524.6,463,520.3,458.6,520.3,453.3z"/>
	<g>
		<circle fill="#FFFFFF" cx="479" cy="497.8" r="4.7"/>
		<circle fill="#FFFFFF" cx="493" cy="497.8" r="4.7"/>
		<circle fill="#FFFFFF" cx="507" cy="497.8" r="4.7"/>
		<circle fill="#FFFFFF" cx="521" cy="497.8" r="4.7"/>
	</g>
</g>
</svg>
