<?xml version="1.0" encoding="utf-8"?>
<!-- Generator: Adobe Illustrator 25.2.1, SVG Export Plug-In . SVG Version: 6.00 Build 0)  -->
<svg version="1.1" id="Layer_1" xmlns="http://www.w3.org/2000/svg" xmlns:xlink="http://www.w3.org/1999/xlink" x="0px" y="0px"
	 viewBox="0 0 2307.5 1080" style="enable-background:new 0 0 2307.5 1080;" xml:space="preserve">
<style type="text/css">
	.st0{fill:#FFC843;}
	.st1{fill:#D38700;}
	.st2{fill:#FFF7F4;}
	.st3{fill:#13162F;}
	.st4{fill:#FFFFFF;}
	.st5{font-family:'CovikSansMono-Bold';}
	.st6{font-size:150px;}
</style>
<g id="icon" transform="translate(-1.9444444444444287 -1.9444444444444287) scale(3.89 3.89)">
	<circle class="st0" cx="454.2" cy="139.3" r="138.8"/>
	<circle class="st1" cx="454.2" cy="139.3" r="115.7"/>
	<path class="st0" d="M414.1,168.7l37.3,37.3c1.5,1.5,3.9,1.5,5.3,0l37.3-37.3c1.5-1.5,1.5-3.9,0-5.3L483.8,153
		c-1.5-1.5-3.9-1.5-5.3,0l-21.7,21.6c-1.5,1.5-3.8,1.5-5.3,0l-22-21.7c-1.5-1.5-3.9-1.4-5.4,0.1l-10,10.3
		C412.7,164.9,412.7,167.2,414.1,168.7z"/>
	<path class="st0" d="M414.1,109.9l37.3-37.3c1.5-1.5,3.9-1.5,5.3,0l37.3,37.3c1.5,1.5,1.5,3.9,0,5.3l-10.3,10.4
		c-1.5,1.5-3.9,1.5-5.3,0l-21.7-21.6c-1.5-1.5-3.8-1.5-5.3,0l-22,21.7c-1.5,1.5-3.9,1.4-5.4-0.1l-10-10.3
		C412.7,113.7,412.7,111.4,414.1,109.9z"/>
	<path class="st0" d="M387.4,142l10.3,10.3c1.5,1.5,3.9,1.5,5.3,0l10.3-10.3c1.5-1.5,1.5-3.9,0-5.3l-10.3-10.3
		c-1.5-1.5-3.9-1.5-5.3,0l-10.3,10.3C385.9,138.1,385.9,140.5,387.4,142z"/>
	<path class="st0" d="M441.1,142l10.3,10.3c1.5,1.5,3.9,1.5,5.3,0l10.3-10.3c1.5-1.5,1.5-3.9,0-5.3l-10.3-10.3
		c-1.5-1.5-3.9-1.5-5.3,0l-10.3,10.3C439.7,138.1,439.7,140.5,441.1,142z"/>
	<path class="st0" d="M494.9,142l10.3,10.3c1.5,1.5,3.9,1.5,5.3,0l10.3-10.3c1.5-1.5,1.5-3.9,0-5.3l-10.3-10.3
		c-1.5-1.5-3.9-1.5-5.3,0l-10.3,10.3C493.4,138.1,493.4,140.5,494.9,142z"/>
</g>
<g>
	<circle class="st2" cx="539.9" cy="539.9" r="540"/>
	<g>
		<path class="st3" d="M387.6,290.6v527.7h162.7v-365C550.3,363.5,477.5,290.6,387.6,290.6z"/>
		<path class="st3" d="M690.5,289.1c-46.9,0-84.8,38-84.8,84.8c0,46.9,38,84.8,84.8,84.8c46.9,0,84.8-38,84.8-84.8
			S737.3,289.1,690.5,289.1z"/>
	</g>
</g>
<text transform="matrix(1 0 0 1 1108.7451 577.6501)" class="st4 st5 st6">+</text>
</svg>
