<?xml version="1.0" encoding="utf-8"?>
<!-- Generator: Adobe Illustrator 25.2.1, SVG Export Plug-In . SVG Version: 6.00 Build 0)  -->
<svg version="1.1" id="Layer_1" xmlns="http://www.w3.org/2000/svg" xmlns:xlink="http://www.w3.org/1999/xlink" x="0px" y="0px"
	 viewBox="0 0 300 300" style="enable-background:new 0 0 300 300;" xml:space="preserve">
<style type="text/css">
	.st0{fill:url(#SVGID_1_);}
	.st1{fill:url(#SVGID_2_);}
	.st2{opacity:0.3;}
	.st3{fill:#F5F5F5;}
	.st4{fill:url(#SVGID_3_);}
	.st5{opacity:0.6;}
	.st6{fill:none;}
	.st7{opacity:0.8;fill:none;}
	.st8{fill:#C3C3C3;}
</style>
<g>
	<g>
		<linearGradient id="SVGID_1_" gradientUnits="userSpaceOnUse" x1="226.2631" y1="55.691" x2="76.9156" y2="250.8847">
			<stop  offset="5.001650e-03" style="stop-color:#BDBDBD"/>
			<stop  offset="0.2892" style="stop-color:#C5C5C5"/>
			<stop  offset="0.7241" style="stop-color:#DADADA"/>
			<stop  offset="0.998" style="stop-color:#EBEBEB"/>
		</linearGradient>
		<path class="st0" d="M244.21,120.22C205.24,53.57,136.2,9.08,90,20.86c-46.2,11.78-52.05,75.37-13.08,142.02
			c38.97,66.66,108.01,111.14,154.21,99.36C277.32,250.46,283.18,186.88,244.21,120.22z"/>
		<linearGradient id="SVGID_2_" gradientUnits="userSpaceOnUse" x1="20.8561" y1="74.0666" x2="236.1946" y2="268.5662">
			<stop  offset="0" style="stop-color:#C6C6C6"/>
			<stop  offset="0.0175" style="stop-color:#C9C9C9"/>
			<stop  offset="0.0691" style="stop-color:#CCCCCC"/>
			<stop  offset="0.1243" style="stop-color:#D7D7D7"/>
			<stop  offset="0.2243" style="stop-color:#E2E2E2"/>
			<stop  offset="0.365" style="stop-color:#E9E9E9"/>
			<stop  offset="0.7558" style="stop-color:#EBEBEB"/>
			<stop  offset="0.8137" style="stop-color:#E6E6E6"/>
			<stop  offset="0.879" style="stop-color:#D9D9D9"/>
			<stop  offset="0.9477" style="stop-color:#C2C2C2"/>
			<stop  offset="0.9565" style="stop-color:#BFBFBF"/>
			<stop  offset="1" style="stop-color:#C6C6C6"/>
		</linearGradient>
		<path class="st1" d="M231.13,262.25c-0.92,0.24-1.86,0.44-2.8,0.63c-0.25,0.05-0.51,0.1-0.76,0.15c-0.8,0.15-1.61,0.29-2.43,0.41
			c-0.16,0.02-0.32,0.05-0.48,0.07c-0.95,0.13-1.92,0.24-2.89,0.33c-0.25,0.02-0.49,0.04-0.74,0.06c-0.79,0.06-1.59,0.12-2.39,0.15
			c-0.23,0.01-0.46,0.02-0.7,0.03c-0.99,0.04-1.98,0.05-2.98,0.05c-0.21,0-0.41-0.01-0.62-0.01c-0.83-0.01-1.67-0.04-2.51-0.08
			c-0.27-0.01-0.54-0.02-0.82-0.04c-1.02-0.06-2.05-0.13-3.08-0.23c-0.1-0.01-0.19-0.02-0.29-0.03c-0.95-0.1-1.91-0.21-2.87-0.34
			c-0.31-0.04-0.61-0.08-0.92-0.13c-0.69-0.1-1.39-0.21-2.08-0.33c-0.28-0.05-0.56-0.09-0.84-0.14c-0.96-0.17-1.93-0.36-2.9-0.56
			c-0.12-0.02-0.24-0.05-0.36-0.08c-0.86-0.18-1.72-0.38-2.58-0.59c-0.31-0.08-0.63-0.16-0.95-0.24c-0.69-0.17-1.38-0.35-2.08-0.54
			c-0.33-0.09-0.66-0.18-0.98-0.27c-0.78-0.22-1.56-0.45-2.34-0.69c-0.22-0.07-0.44-0.13-0.66-0.2c-0.99-0.31-1.99-0.63-2.98-0.97
			c-0.25-0.09-0.51-0.18-0.76-0.27c-0.75-0.26-1.51-0.53-2.27-0.81c-0.34-0.13-0.68-0.25-1.02-0.38c-0.71-0.27-1.42-0.55-2.13-0.83
			c-0.32-0.13-0.63-0.25-0.95-0.38c-0.92-0.38-1.85-0.76-2.77-1.16c-0.08-0.03-0.16-0.07-0.23-0.1c-1-0.43-2-0.89-3-1.35
			c-0.31-0.14-0.61-0.29-0.92-0.43c-0.71-0.33-1.42-0.68-2.14-1.02c-0.35-0.17-0.7-0.34-1.04-0.52c-0.71-0.36-1.43-0.72-2.14-1.09
			c-0.31-0.16-0.61-0.31-0.92-0.47c-1.01-0.53-2.01-1.07-3.02-1.62c-0.07-0.04-0.13-0.08-0.2-0.11c-0.94-0.52-1.88-1.06-2.82-1.6
			c-0.32-0.19-0.64-0.38-0.96-0.56c-0.7-0.41-1.4-0.83-2.1-1.25c-0.35-0.21-0.7-0.42-1.04-0.64c-0.73-0.45-1.45-0.9-2.18-1.36
			c-0.27-0.17-0.54-0.34-0.82-0.52c-1.3-0.84-2.61-1.7-3.91-2.58c-0.25-0.17-0.51-0.34-0.76-0.52c-1.3-0.89-2.59-1.79-3.88-2.72
			c-0.19-0.14-0.39-0.28-0.58-0.42c-1.29-0.94-2.58-1.89-3.87-2.87c-0.08-0.06-0.15-0.11-0.23-0.17c-1.31-1-2.62-2.03-3.92-3.07
			c-0.23-0.19-0.47-0.37-0.7-0.56c-1.26-1.02-2.52-2.05-3.77-3.11c-0.23-0.2-0.47-0.4-0.7-0.59c-1.28-1.09-2.56-2.2-3.84-3.33
			c-0.09-0.08-0.18-0.16-0.27-0.24c-1.24-1.1-2.47-2.23-3.69-3.36c-0.18-0.17-0.36-0.34-0.55-0.51c-1.23-1.15-2.45-2.32-3.66-3.51
			c-0.29-0.29-0.59-0.58-0.88-0.87c-0.54-0.54-1.08-1.08-1.62-1.62c-0.34-0.34-0.68-0.69-1.02-1.03c-0.57-0.58-1.14-1.17-1.7-1.76
			c-0.3-0.31-0.6-0.62-0.9-0.94c-0.74-0.77-1.47-1.56-2.2-2.34c-0.12-0.13-0.25-0.26-0.37-0.39c-0.85-0.92-1.69-1.85-2.53-2.79
			c-0.25-0.28-0.5-0.57-0.75-0.85c-0.59-0.66-1.17-1.32-1.75-1.99c-0.31-0.36-0.62-0.72-0.93-1.09c-0.52-0.6-1.04-1.21-1.55-1.82
			c-0.33-0.39-0.65-0.78-0.97-1.16c-0.5-0.6-1-1.21-1.49-1.81c-0.32-0.39-0.64-0.79-0.96-1.18c-0.51-0.63-1.01-1.27-1.52-1.91
			c-0.29-0.37-0.59-0.74-0.88-1.11c-0.58-0.74-1.15-1.49-1.72-2.24c-0.21-0.27-0.42-0.54-0.63-0.82c-0.77-1.03-1.54-2.06-2.3-3.1
			c-0.17-0.23-0.33-0.46-0.5-0.7c-0.59-0.81-1.18-1.63-1.76-2.45c-0.27-0.38-0.53-0.76-0.8-1.14c-0.48-0.69-0.96-1.37-1.43-2.06
			c-0.29-0.42-0.57-0.84-0.86-1.26c-0.45-0.66-0.89-1.33-1.34-2c-0.29-0.43-0.57-0.86-0.85-1.3c-0.44-0.68-0.88-1.36-1.32-2.05
			c-0.27-0.42-0.54-0.84-0.8-1.27c-0.47-0.75-0.93-1.5-1.4-2.25c-0.22-0.36-0.45-0.72-0.67-1.08c-0.68-1.12-1.35-2.24-2.01-3.37
			c-0.85-1.45-1.66-2.9-2.47-4.35c-0.46-0.83-0.91-1.66-1.36-2.48c-0.49-0.9-0.97-1.8-1.44-2.7c-0.43-0.83-0.85-1.65-1.27-2.48
			c-0.45-0.9-0.91-1.79-1.34-2.68c-0.4-0.82-0.8-1.65-1.19-2.47c-0.42-0.89-0.84-1.78-1.25-2.67c-0.38-0.82-0.74-1.64-1.1-2.45
			c-0.39-0.89-0.78-1.77-1.16-2.65c-0.35-0.81-0.68-1.62-1.02-2.44c-0.36-0.88-0.71-1.76-1.06-2.63c-0.32-0.81-0.63-1.61-0.93-2.41
			c-0.33-0.87-0.65-1.74-0.97-2.61c-0.29-0.8-0.57-1.6-0.85-2.39c-0.3-0.86-0.59-1.72-0.87-2.58c-0.26-0.79-0.52-1.58-0.76-2.37
			c-0.33-1.04-0.64-2.08-0.95-3.12c-0.11-0.38-0.23-0.76-0.33-1.14c-0.42-1.47-0.82-2.93-1.19-4.38c-0.07-0.27-0.13-0.54-0.2-0.81
			c-0.3-1.2-0.58-2.39-0.85-3.58c-0.1-0.44-0.19-0.87-0.29-1.31c-0.24-1.14-0.47-2.27-0.69-3.39c-0.06-0.32-0.13-0.63-0.18-0.95
			c-0.26-1.41-0.49-2.8-0.7-4.19c-0.05-0.33-0.09-0.65-0.14-0.98c-0.16-1.09-0.3-2.16-0.42-3.24c-0.05-0.41-0.1-0.83-0.14-1.24
			c-0.12-1.08-0.21-2.15-0.3-3.21c-0.03-0.32-0.06-0.64-0.08-0.95c-0.1-1.35-0.17-2.68-0.22-4.01c-0.01-0.31-0.01-0.62-0.02-0.93
			c-0.03-1.02-0.04-2.03-0.04-3.03c0-0.43,0-0.85,0.01-1.27c0.01-0.93,0.04-1.85,0.07-2.76c0.02-0.38,0.03-0.76,0.05-1.13
			c0.07-1.26,0.15-2.5,0.27-3.73c0.01-0.08,0.02-0.16,0.03-0.24c0.11-1.15,0.25-2.28,0.4-3.4c0.05-0.37,0.11-0.74,0.17-1.11
			c0.13-0.87,0.27-1.74,0.43-2.6c0.06-0.31,0.11-0.63,0.18-0.94c0.22-1.13,0.46-2.25,0.73-3.34c0.03-0.11,0.06-0.21,0.08-0.31
			c0.25-1,0.52-1.98,0.81-2.94c0.09-0.31,0.19-0.61,0.28-0.91c0.27-0.86,0.55-1.7,0.85-2.54c0.08-0.21,0.15-0.42,0.22-0.63
			c0.38-1.01,0.78-2,1.2-2.97c0.1-0.24,0.21-0.47,0.32-0.7c0.34-0.76,0.7-1.51,1.07-2.25c0.13-0.26,0.26-0.52,0.4-0.78
			c0.48-0.93,0.99-1.84,1.52-2.72c0.03-0.05,0.06-0.09,0.09-0.13c0.51-0.84,1.04-1.65,1.59-2.46c0.16-0.24,0.33-0.47,0.5-0.71
			c0.47-0.67,0.96-1.32,1.47-1.96c0.14-0.17,0.27-0.35,0.41-0.52c0.63-0.78,1.29-1.54,1.97-2.27c0.16-0.17,0.32-0.33,0.48-0.5
			c0.55-0.58,1.12-1.15,1.7-1.7c0.2-0.19,0.41-0.39,0.62-0.58c0.74-0.68,1.5-1.34,2.29-1.98l0,0c0,0,0,0,0,0L50.2,46.87
			c-0.79,0.63-1.55,1.29-2.29,1.97c-0.21,0.19-0.41,0.39-0.62,0.58c-0.58,0.55-1.15,1.11-1.7,1.69c-0.16,0.17-0.33,0.33-0.48,0.5
			c-0.68,0.73-1.33,1.49-1.97,2.27c-0.14,0.17-0.27,0.35-0.41,0.52c-0.5,0.64-0.99,1.29-1.47,1.96c-0.17,0.24-0.34,0.47-0.5,0.71
			c-0.55,0.8-1.08,1.62-1.59,2.46c-0.03,0.05-0.06,0.09-0.09,0.13c-0.53,0.88-1.03,1.8-1.52,2.72c-0.13,0.26-0.26,0.52-0.4,0.78
			c-0.37,0.74-0.73,1.49-1.08,2.26c-0.11,0.23-0.21,0.46-0.32,0.7c-0.42,0.97-0.82,1.96-1.2,2.97c-0.08,0.21-0.15,0.42-0.22,0.63
			c-0.3,0.83-0.59,1.68-0.86,2.54c-0.09,0.3-0.19,0.6-0.28,0.91c-0.29,0.97-0.56,1.95-0.81,2.95c-0.03,0.1-0.06,0.2-0.08,0.3
			c-0.27,1.1-0.51,2.22-0.73,3.35c-0.06,0.31-0.12,0.62-0.17,0.93c-0.08,0.41-0.16,0.82-0.23,1.23c-0.08,0.45-0.14,0.91-0.2,1.37
			c-0.06,0.37-0.11,0.73-0.16,1.11c-0.15,1.12-0.29,2.24-0.4,3.39c-0.01,0.08-0.02,0.16-0.03,0.25c-0.11,1.23-0.2,2.47-0.27,3.73
			c-0.02,0.37-0.03,0.75-0.05,1.13c-0.04,0.91-0.06,1.83-0.08,2.76C30,96.1,30,96.53,30,96.95c0,1,0.02,2.01,0.04,3.03
			c0.01,0.31,0.01,0.62,0.02,0.93c0.05,1.32,0.12,2.66,0.22,4c0.02,0.32,0.06,0.64,0.08,0.96c0.06,0.75,0.12,1.49,0.19,2.24
			c0.03,0.32,0.07,0.64,0.11,0.96c0.04,0.41,0.09,0.82,0.14,1.24c0.13,1.07,0.27,2.16,0.42,3.24c0.05,0.32,0.09,0.64,0.14,0.97
			c0.21,1.39,0.44,2.78,0.7,4.19c0.06,0.31,0.12,0.63,0.18,0.95c0.21,1.12,0.44,2.25,0.68,3.39c0.09,0.44,0.19,0.87,0.29,1.31
			c0.26,1.18,0.55,2.37,0.84,3.57c0.07,0.28,0.13,0.55,0.2,0.83c0.37,1.45,0.77,2.91,1.19,4.38c0.11,0.38,0.22,0.76,0.33,1.14
			c0.2,0.67,0.38,1.33,0.59,2c0.11,0.37,0.24,0.74,0.36,1.11c0.25,0.79,0.5,1.58,0.76,2.37c0.28,0.86,0.57,1.72,0.87,2.58
			c0.28,0.8,0.56,1.59,0.85,2.39c0.31,0.87,0.64,1.74,0.97,2.61c0.3,0.8,0.62,1.61,0.93,2.41c0.34,0.88,0.7,1.75,1.06,2.63
			c0.33,0.81,0.67,1.62,1.02,2.44c0.38,0.88,0.76,1.76,1.15,2.65c0.36,0.82,0.73,1.64,1.1,2.46c0.41,0.89,0.82,1.78,1.25,2.67
			c0.39,0.82,0.79,1.65,1.19,2.47c0.44,0.89,0.89,1.79,1.34,2.68c0.42,0.83,0.84,1.65,1.28,2.48c0.47,0.9,0.95,1.8,1.44,2.7
			c0.45,0.83,0.9,1.66,1.36,2.49c0.18,0.32,0.34,0.64,0.52,0.96c0.64,1.13,1.29,2.26,1.95,3.39c0.66,1.13,1.33,2.25,2.01,3.37
			c0.22,0.36,0.45,0.72,0.67,1.09c0.46,0.75,0.93,1.51,1.4,2.25c0.26,0.42,0.53,0.84,0.8,1.26c0.44,0.69,0.88,1.37,1.32,2.05
			c0.28,0.44,0.57,0.87,0.86,1.3c0.44,0.67,0.88,1.33,1.33,1.99c0.29,0.42,0.57,0.85,0.86,1.27c0.47,0.69,0.95,1.38,1.43,2.06
			c0.27,0.38,0.53,0.76,0.8,1.14c0.59,0.83,1.18,1.65,1.77,2.47c0.16,0.22,0.32,0.45,0.49,0.68c0.76,1.04,1.53,2.08,2.3,3.1
			c0.21,0.27,0.41,0.54,0.62,0.81c0.57,0.75,1.15,1.5,1.73,2.25c0.29,0.37,0.58,0.73,0.87,1.1c0.51,0.64,1.01,1.28,1.52,1.92
			c0.32,0.39,0.64,0.79,0.96,1.18c0.49,0.61,0.99,1.21,1.49,1.81c0.32,0.39,0.65,0.78,0.97,1.17c0.51,0.61,1.03,1.21,1.54,1.81
			c0.31,0.37,0.63,0.73,0.94,1.1c0.58,0.67,1.16,1.33,1.75,1.99c0.25,0.29,0.5,0.57,0.76,0.86c0.84,0.94,1.68,1.87,2.53,2.79
			c0.11,0.12,0.23,0.24,0.34,0.37c0.74,0.8,1.48,1.59,2.22,2.37c0.3,0.31,0.59,0.62,0.89,0.92c0.57,0.59,1.14,1.19,1.72,1.77
			c0.34,0.34,0.68,0.68,1.01,1.02c0.54,0.55,1.09,1.09,1.63,1.63c0.17,0.17,0.35,0.35,0.52,0.52c0.12,0.12,0.24,0.23,0.36,0.34
			c1.21,1.19,2.43,2.36,3.66,3.51c0.18,0.17,0.36,0.34,0.55,0.51c1.22,1.14,2.45,2.26,3.68,3.36c0.09,0.08,0.19,0.17,0.28,0.25
			c1.27,1.13,2.55,2.23,3.83,3.32c0.24,0.2,0.47,0.4,0.71,0.6c1.25,1.05,2.51,2.09,3.77,3.1c0.23,0.19,0.47,0.37,0.7,0.56
			c1.3,1.04,2.61,2.07,3.92,3.07c0.08,0.06,0.15,0.11,0.23,0.17c1.28,0.97,2.57,1.93,3.86,2.86c0.2,0.14,0.4,0.29,0.59,0.43
			c1.29,0.93,2.58,1.83,3.88,2.71c0.25,0.17,0.51,0.35,0.76,0.52c1.3,0.88,2.6,1.74,3.9,2.58c0.06,0.04,0.12,0.08,0.18,0.12
			c0.21,0.14,0.42,0.26,0.64,0.4c0.73,0.46,1.45,0.92,2.18,1.36c0.35,0.21,0.69,0.42,1.04,0.63c0.7,0.42,1.4,0.84,2.1,1.25
			c0.32,0.19,0.65,0.38,0.97,0.57c0.94,0.54,1.87,1.07,2.81,1.59c0.07,0.04,0.14,0.08,0.21,0.12c1.01,0.56,2.01,1.09,3.02,1.62
			c0.31,0.16,0.61,0.32,0.92,0.47c0.71,0.37,1.43,0.73,2.14,1.09c0.35,0.17,0.7,0.35,1.05,0.52c0.71,0.35,1.42,0.69,2.14,1.02
			c0.31,0.14,0.61,0.29,0.92,0.43c1,0.46,2.01,0.92,3.01,1.35c0.07,0.03,0.14,0.06,0.22,0.09c0.93,0.4,1.86,0.79,2.78,1.17
			c0.11,0.04,0.21,0.09,0.32,0.13c0.21,0.08,0.42,0.16,0.63,0.24c0.71,0.28,1.43,0.56,2.14,0.83c0.34,0.13,0.67,0.25,1.01,0.38
			c0.76,0.28,1.52,0.55,2.28,0.82c0.25,0.09,0.5,0.18,0.75,0.26c1,0.34,1.99,0.66,2.99,0.97c0.22,0.07,0.44,0.13,0.65,0.2
			c0.78,0.24,1.56,0.47,2.34,0.69c0.33,0.09,0.65,0.18,0.98,0.27c0.7,0.19,1.39,0.37,2.09,0.54c0.31,0.08,0.63,0.16,0.94,0.23
			c0.86,0.21,1.72,0.4,2.58,0.59c0.12,0.03,0.24,0.05,0.36,0.08c0.97,0.2,1.94,0.39,2.91,0.56c0.28,0.05,0.56,0.09,0.84,0.14
			c0.7,0.12,1.39,0.23,2.09,0.33c0.16,0.02,0.33,0.05,0.49,0.08c0.14,0.02,0.28,0.03,0.42,0.05c0.96,0.13,1.92,0.24,2.88,0.34
			c0.09,0.01,0.19,0.02,0.28,0.03c1.04,0.1,2.06,0.17,3.09,0.23c0.27,0.02,0.54,0.03,0.81,0.04c0.84,0.04,1.68,0.07,2.52,0.08
			c0.21,0,0.41,0.01,0.62,0.01c1,0.01,1.99-0.01,2.98-0.05c0.23-0.01,0.47-0.02,0.7-0.03c0.8-0.04,1.6-0.09,2.39-0.15
			c0.25-0.02,0.49-0.04,0.74-0.06c0.97-0.09,1.93-0.2,2.89-0.33c0.16-0.02,0.32-0.05,0.48-0.07c0.82-0.12,1.63-0.26,2.43-0.41
			c0.26-0.05,0.51-0.1,0.76-0.15c0.94-0.19,1.88-0.4,2.8-0.63c6.31-1.61,11.86-4.18,16.66-7.6c0.68-0.49,1.35-0.99,2.01-1.52
			l21.14-16.89C244.56,257.31,238.34,260.41,231.13,262.25z"/>
		<g class="st2">
			<path class="st3" d="M103.4,44.23c36.92-9.42,92.44,26.52,123.76,80.09c31.32,53.57,26.76,104.8-10.16,114.22
				c-36.92,9.42-92.44-26.49-123.76-80.06C61.92,104.91,66.48,53.65,103.4,44.23 M222.68,248.25
				c40.61-10.36,45.62-66.71,11.17-125.64C199.4,63.68,138.34,24.16,97.72,34.52C57.11,44.88,52.1,101.26,86.55,160.18
				C121,219.11,182.07,258.61,222.68,248.25"/>
		</g>
		<linearGradient id="SVGID_3_" gradientUnits="userSpaceOnUse" x1="225.1172" y1="80.5327" x2="82.452" y2="217.4072">
			<stop  offset="5.962610e-03" style="stop-color:#CCCCCC"/>
			<stop  offset="0.531" style="stop-color:#D4D4D4"/>
			<stop  offset="0.998" style="stop-color:#DFDFDF"/>
		</linearGradient>
		<path class="st4" d="M105.9,43.26c36.92-9.42,92.44,26.52,123.76,80.09s26.76,104.8-10.16,114.22
			c-36.92,9.42-92.44-26.49-123.76-80.06C64.42,103.94,68.98,52.68,105.9,43.26 M225.18,247.28
			c40.61-10.36,45.62-66.71,11.17-125.64c-34.45-58.93-95.52-98.45-136.13-88.09C59.6,43.91,54.59,100.29,89.04,159.22
			C123.5,218.14,184.56,257.64,225.18,247.28"/>
		<g class="st5">
			<path class="st6" d="M236.35,121.65c-34.45-58.93-95.52-98.45-136.13-88.09C59.6,43.91,54.59,100.29,89.04,159.22
				c34.45,58.93,95.52,98.43,136.13,88.07C265.79,236.93,270.8,180.57,236.35,121.65z M225.1,246.97
				c-4.27,1.09-8.86,1.64-13.65,1.64c0,0,0,0,0,0c-40.42,0-91.78-37.67-122.12-89.56c-21.83-37.33-28.57-74.66-18.04-99.85
				c5.49-13.14,15.53-21.9,29.02-25.34c4.26-1.09,8.86-1.64,13.65-1.64c40.42,0,91.78,37.68,122.13,89.58
				c21.82,37.33,28.57,74.65,18.04,99.83C248.62,234.77,238.59,243.53,225.1,246.97z"/>
			<path class="st6" d="M118.37,41.44c-4.41,0-8.63,0.51-12.56,1.51c-12.45,3.18-21.72,11.27-26.79,23.4
				c-9.65,23.08-3.5,57.22,16.43,91.32c27.68,47.35,74.6,81.72,111.55,81.72c4.41,0,8.64-0.51,12.57-1.51
				c12.46-3.18,21.72-11.27,26.79-23.39c9.64-23.07,3.5-57.2-16.44-91.3C202.24,75.82,155.32,41.44,118.37,41.44z M219.5,237.57
				c-36.92,9.42-92.44-26.49-123.76-80.06C64.42,103.94,68.98,52.68,105.9,43.26c36.92-9.42,92.44,26.52,123.76,80.09
				C260.98,176.92,256.42,228.16,219.5,237.57z"/>
		</g>
		<path class="st7" d="M244.21,120.22C205.24,53.57,136.2,9.08,90,20.86c-46.2,11.78-52.05,75.37-13.08,142.02
			c38.97,66.66,108.01,111.14,154.21,99.36C277.32,250.46,283.18,186.88,244.21,120.22z M231.05,261.93
			c-4.89,1.25-10.16,1.88-15.66,1.88h0c-45.83,0-103.95-42.52-138.19-101.09C52.6,120.64,45.01,78.54,56.9,50.1
			c6.27-14.99,17.74-24.99,33.19-28.93c4.89-1.25,10.16-1.88,15.66-1.88c45.83,0,103.94,42.51,138.19,101.09
			c24.6,42.08,32.19,84.19,20.3,112.62C257.97,247.99,246.49,258,231.05,261.93z"/>
	</g>
	<g class="st2">
		<path class="st3" d="M99.35,83.04l83.95,115.55h35.63l-58.06-79.92C146.57,98.99,119.03,83.04,99.35,83.04z"/>
		<path class="st3" d="M165.41,82.7c-10.26,0-12.53,8.32-5.08,18.58c7.45,10.26,21.81,18.58,32.07,18.58
			c10.26,0,12.53-8.32,5.08-18.58C190.03,91.02,175.67,82.7,165.41,82.7z"/>
	</g>
	<g>
		<path class="st8" d="M101.72,82.87l83.95,115.55h35.63l-58.06-79.92C148.93,98.82,121.39,82.87,101.72,82.87z"/>
		<path class="st8" d="M167.78,82.53c-10.26,0-12.53,8.32-5.08,18.58c7.45,10.26,21.81,18.58,32.07,18.58
			c10.26,0,12.53-8.32,5.08-18.58C192.4,90.85,178.04,82.53,167.78,82.53z"/>
	</g>
</g>
</svg>
